# xmcd CD database file
#
# Track frame offsets:
#	150
#	19910
#	41047
#	61205
#	75110
#	91627
#	108337
#	128020
#	148962
#	172812
#
# Disc length: 2491 seconds
#
# Revision: 6
# Processed by: cddbd v1.5.2PL0 Copyright (c) Steve Scherf et al.
# Submitted via: CDex 1.51
#
DISCID=7209b90a
DTITLE=Manhattans - Greatest Hits
DYEAR=1989
DGENRE=Soul
TTITLE0=I'll never find another (Find another like you)
TTITLE1=Shinning Star
TTITLE2=Kiss and say goodbye
TTITLE3=Hurt
TTITLE4=There's is no more without you
TTITLE5=Do you really mean goodbye
TTITLE6=We never danced to a love song
TTITLE7=It feels so good to be loved so bad
TTITLE8=I kinda miss you
TTITLE9=Don't take your love
EXTD=YEAR: 1989
EXTT0=
EXTT1=
EXTT2=
EXTT3=
EXTT4=
EXTT5=
EXTT6=
EXTT7=
EXTT8=
EXTT9=
PLAYORDER=
